<svg xmlns="http://www.w3.org/2000/svg" viewBox="0 0 16 16">
    <path d="M0 2.00006C0 1.44778 0.447715 1.00006 1 1.00006C1.55228 1.00006 2 1.44778 2 2.00006V14.0001C2 14.5523 1.55228 15.0001 1 15.0001C0.447715 15.0001 0 14.5523 0 14.0001V2.00006Z"></path>
    <path d="M3 2.00006C3 1.44778 3.44772 1.00006 4 1.00006H8C8.55228 1.00006 9 1.44778 9 2.00006C9 2.55235 8.55228 3.00006 8 3.00006H4C3.44772 3.00006 3 2.55235 3 2.00006Z"></path>
    <path d="M10 2.00006C10 1.44778 10.4477 1.00006 11 1.00006H15C15.5523 1.00006 16 1.44778 16 2.00006C16 2.55235 15.5523 3.00006 15 3.00006H11C10.4477 3.00006 10 2.55235 10 2.00006Z"></path>
    <path d="M8 1.00006C7.44772 1.00006 7 1.44778 7 2.00006L7 7.00006C7 7.55235 7.44772 8.00006 8 8.00006C8.55228 8.00006 9 7.55235 9 7.00006V2.00006C9 1.44778 8.55228 1.00006 8 1.00006Z"></path>
    <path d="M15 1.00006C14.4477 1.00006 14 1.44778 14 2.00006V7.00006C14 7.55235 14.4477 8.00006 15 8.00006C15.5523 8.00006 16 7.55235 16 7.00006V2.00006C16 1.44778 15.5523 1.00006 15 1.00006Z"></path>
    <path d="M3 8.00006L3 14.0001C3 14.5523 3.44771 15.0001 4 15.0001C4.55228 15.0001 5 14.5523 5 14.0001V10.0001C5 8.89549 4.10457 8.00006 3 8.00006V8.00006Z"></path>
    <path d="M15 8.00006C14.4477 8.00006 14 8.44778 14 9.00006V14.0001C14 14.5523 14.4477 15.0001 15 15.0001C15.5523 15.0001 16 14.5523 16 14.0001V9.00006C16 8.44778 15.5523 8.00006 15 8.00006Z"></path>
    <path d="M3 8.00006C3 7.44778 3.44772 7.00006 4 7.00006H9V7.00006C9 8.10463 8.10457 9.00006 7 9.00006H4C3.44772 9.00006 3 8.55235 3 8.00006Z"></path>
    <path d="M10 8.00006C10 7.44778 10.4477 7.00006 11 7.00006H16V9.00006H11C10.4477 9.00006 10 8.55235 10 8.00006Z"></path>
    <path d="M3 14.0001C3 13.4478 3.44772 13.0001 4 13.0001H8C8.55228 13.0001 9 13.4478 9 14.0001C9 14.5523 8.55228 15.0001 8 15.0001H4C3.44771 15.0001 3 14.5523 3 14.0001Z"></path>
    <path d="M10 14.0001C10 13.4478 10.4477 13.0001 11 13.0001H15C15.5523 13.0001 16 13.4478 16 14.0001C16 14.5523 15.5523 15.0001 15 15.0001H11C10.4477 15.0001 10 14.5523 10 14.0001Z"></path>
</svg>
