<svg xmlns="http://www.w3.org/2000/svg" viewBox="0 0 16 16">
    <path fill-rule="evenodd" clip-rule="evenodd" d="M0 1.00006C0 0.447776 0.447715 6.10352e-05 1 6.10352e-05H6C6.55228 6.10352e-05 7 0.447776 7 1.00006V6.00006C7 6.55235 6.55228 7.00006 6 7.00006H1C0.447715 7.00006 0 6.55235 0 6.00006V1.00006ZM2 2.00006V5.00006H5V2.00006H2ZM9 1.00006C9 0.447776 9.44771 6.10352e-05 10 6.10352e-05H15C15.5523 6.10352e-05 16 0.447776 16 1.00006V6.00006C16 6.55235 15.5523 7.00006 15 7.00006H10C9.44771 7.00006 9 6.55235 9 6.00006V1.00006ZM11 2.00006V5.00006H14V2.00006H11ZM0 10.0001C0 9.44778 0.447715 9.00006 1 9.00006H6C6.55228 9.00006 7 9.44778 7 10.0001V15.0001C7 15.5523 6.55228 16.0001 6 16.0001H1C0.447715 16.0001 0 15.5523 0 15.0001V10.0001ZM2 11.0001V14.0001H5V11.0001H2ZM9 10.0001C9 9.44778 9.44771 9.00006 10 9.00006H15C15.5523 9.00006 16 9.44778 16 10.0001V12.0001C16 12.5523 15.5523 13.0001 15 13.0001C14.4477 13.0001 14 12.5523 14 12.0001V11.0001H10C9.44771 11.0001 9 10.5523 9 10.0001ZM9 15.0001C9 14.4478 9.44771 14.0001 10 14.0001H15C15.5523 14.0001 16 14.4478 16 15.0001C16 15.5523 15.5523 16.0001 15 16.0001H10C9.44771 16.0001 9 15.5523 9 15.0001Z"></path>
</svg>