  <svg viewBox="0 0 120 177" width="160" height="236" fill="none" xmlns="http://www.w3.org/2000/svg">
    <path d="M75.1064 59.9322C89.6714 61.762 101.857 66.1248 109.32 71.8489C113.031 74.6952 115.283 77.6521 116.314 80.4713C117.321 83.2242 117.235 86.0262 115.954 88.8603C113.286 94.7641 105.457 100.63 93.0373 104.641C80.7776 108.6 65.6362 110.222 50.7816 109.108C35.8968 107.992 22.7288 104.238 13.9188 98.8215C5.02957 93.3558 2.05153 87.2279 3.26573 81.8886C4.56422 76.1787 10.8044 70.0842 22.2523 65.5061C33.5179 61.0008 48.1932 58.6517 63.2273 59.0418"
      stroke="url(#paint0_linear)" stroke-width="6" fill="none"/>
    <path fill-rule="evenodd" clip-rule="evenodd" d="M59.9999 112.452C91.6541 112.452 117.583 100.92 119.84 86.3C117.793 107.556 96.1275 131 59.9999 131C23.8723 131 2.2068 107.556 0.159424 86.3C2.41662 100.92 28.3457 112.452 59.9999 112.452Z"
      fill="url(#paint1_linear)"/>
    <path fill-rule="evenodd" clip-rule="evenodd" d="M60 23C58.2962 23 56.8689 24.2895 56.6965 25.9846L51.1546 80.4795C51.0531 80.8102 51 81.1513 51 81.5C51 81.6131 51.0056 81.7254 51.0166 81.8368L51 82H51.0367C51.4501 84.8032 55.3052 87 60 87C64.6948 87 68.5499 84.8032 68.9633 82H69L68.9834 81.8368C68.9944 81.7254 69 81.6131 69 81.5C69 81.1513 68.9469 80.8102 68.8454 80.4795L63.3035 25.9846C63.1311 24.2895 61.7038 23 60 23Z"
      fill="white"/>
    <path d="M34.2501 154.125C37.2176 149.674 42.2133 147 47.5629 147H73.4371C78.7867 147 83.7824 149.674 86.7499 154.125L102 177H19L34.2501 154.125Z"
      fill="url(#paint2_linear)"/>
    <g>
      <path d="M55.7574 12.2426C58.1005 9.8995 61.8995 9.89949 64.2426 12.2426L67.7574 15.7574C70.1005 18.1005 70.1005 21.8995 67.7574 24.2426L64.2426 27.7574C61.8995 30.1005 58.1005 30.1005 55.7574 27.7574L52.2426 24.2426C49.8995 21.8995 49.8995 18.1005 52.2426 15.7574L55.7574 12.2426Z"
        fill="white"/>
    </g>
    <defs>
      <!-- 渐变方向：下深上浅，整体更亮 -->
      <linearGradient id="paint0_linear" x1="60" y1="109" x2="60" y2="59" gradientUnits="userSpaceOnUse">
        <stop stop-color="white" stop-opacity="1"/>
        <stop offset="1" stop-color="white" stop-opacity="0.6"/>
      </linearGradient>
      <linearGradient id="paint1_linear" x1="60" y1="131" x2="60" y2="112" gradientUnits="userSpaceOnUse">
        <stop stop-color="white" stop-opacity="0.98"/>
        <stop offset="1" stop-color="white" stop-opacity="0.6"/>
      </linearGradient>
      <linearGradient id="paint2_linear" x1="60.5" y1="177" x2="60.5" y2="147" gradientUnits="userSpaceOnUse">
        <stop stop-color="white" stop-opacity="0.97"/>
        <stop offset="1" stop-color="white" stop-opacity="0.4"/>
      </linearGradient>
    </defs>
  </svg>